<svg width="185" height="185" viewBox="0 0 185 185" fill="none" xmlns="http://www.w3.org/2000/svg">
<path d="M88.9586 150.55C86.5987 149.947 83.9977 148.087 82.5163 145.968C82.189 145.503 78.8129 138.923 75.0061 131.326C71.1993 123.73 67.4958 116.375 66.7896 114.945C63.3273 108.055 63 107.159 63 104.679C63 99.029 66.824 94.3437 72.3534 93.224C75.8329 92.5178 79.7258 93.5685 82.3957 95.9284C83.7221 97.0997 84.5661 98.5466 88.2696 105.988C90.3366 110.157 92.3347 114.067 92.7137 114.687C94.0573 116.892 96.2449 119.183 98.622 120.836C99.5005 121.439 101.878 122.576 103.221 123.041C104.634 123.506 107.166 123.954 108.768 124.006C110.215 124.057 111.024 124.488 111.248 125.332C111.369 125.745 111.369 126.176 111.283 126.503C111.196 126.779 109.095 131.068 106.597 136.046C103.566 142.109 101.791 145.486 101.171 146.295C99.7416 148.224 97.9674 149.499 95.7109 150.257C93.8506 150.894 90.8189 151.015 88.9586 150.55Z" fill="#A1A1A1"/>
<path d="M112.592 139.646C112.402 139.543 112.161 139.199 112.023 138.871C111.799 138.355 111.799 138.217 112.058 137.717C112.454 136.977 112.781 136.753 113.47 136.735C113.884 136.735 114.194 136.873 114.573 137.252C115.038 137.717 115.089 137.872 115.003 138.51C114.934 138.957 114.762 139.336 114.538 139.526C114.108 139.87 113.074 139.922 112.592 139.646ZM114.521 138.751C114.745 138.148 114.745 138.062 114.418 137.631C113.815 136.839 112.833 136.908 112.471 137.786C112.282 138.234 112.282 138.406 112.54 138.906C112.798 139.474 112.867 139.509 113.539 139.457C114.211 139.405 114.297 139.354 114.521 138.751Z" fill="#A1A1A1"/>
<path d="M112.919 138.871C112.54 138.492 112.575 138.01 113.006 137.7C113.402 137.424 114.039 137.545 114.16 137.924C114.211 138.062 114.091 138.096 113.763 138.01C113.23 137.872 112.885 138.217 113.178 138.578C113.298 138.716 113.488 138.734 113.781 138.63C114.091 138.51 114.194 138.527 114.194 138.699C114.194 139.164 113.333 139.285 112.919 138.871Z" fill="#A1A1A1"/>
<path d="M106.443 115.806C105.082 115.462 102.877 114.308 101.826 113.395C99.1909 111.069 97.8301 108.089 97.8301 104.662C97.8301 101.682 98.7086 99.1667 100.517 97.048C103.291 93.7924 107.459 92.3972 111.851 93.2412C114.005 93.6374 115.538 94.4814 117.467 96.3245C119.896 98.65 121.05 101.613 120.878 105.161C120.636 109.95 117.519 114.084 112.988 115.582C111.576 116.048 107.907 116.168 106.443 115.806Z" fill="#A1A1A1"/>
</svg>
